<svg xmlns="http://www.w3.org/2000/svg" version="1.1" xmlns:xlink="http://www.w3.org/1999/xlink" xmlns:svgjs="http://svgjs.com/svgjs" width="300" height="300" preserveAspectRatio="none" viewBox="0 0 300 300"><g mask="url(&quot;#SvgjsMask1143&quot;)" fill="none"><use xlink:href="#SvgjsPath1144" x="30" y="30" stroke="rgba(255, 255, 255, 0.26)"></use><use xlink:href="#SvgjsPath1144" x="30" y="90" stroke="rgba(255, 255, 255, 0.26)"></use><use xlink:href="#SvgjsPath1145" x="30" y="150" stroke="rgba(255, 255, 255, 0.26)"></use><use xlink:href="#SvgjsPath1146" x="30" y="210" stroke="rgba(255, 255, 255, 0.26)"></use><use xlink:href="#SvgjsPath1144" x="30" y="270" stroke="rgba(255, 255, 255, 0.26)"></use><use xlink:href="#SvgjsPath1145" x="90" y="30" stroke="rgba(255, 255, 255, 0.26)"></use><use xlink:href="#SvgjsPath1144" x="90" y="90" stroke="rgba(255, 255, 255, 0.26)"></use><use xlink:href="#SvgjsPath1144" x="90" y="150" stroke="rgba(255, 255, 255, 0.26)"></use><use xlink:href="#SvgjsPath1145" x="90" y="210" stroke="rgba(255, 255, 255, 0.26)"></use><use xlink:href="#SvgjsPath1144" x="90" y="270" stroke="rgba(255, 255, 255, 0.26)"></use><use xlink:href="#SvgjsPath1147" x="150" y="30" stroke="rgba(255, 255, 255, 0.26)"></use><use xlink:href="#SvgjsPath1145" x="150" y="90" stroke="rgba(255, 255, 255, 0.26)"></use><use xlink:href="#SvgjsPath1148" x="150" y="150" stroke="rgba(255, 255, 255, 0.26)"></use><use xlink:href="#SvgjsPath1145" x="150" y="210" stroke="rgba(255, 255, 255, 0.26)"></use><use xlink:href="#SvgjsPath1144" x="150" y="270" stroke="rgba(255, 255, 255, 0.26)"></use><use xlink:href="#SvgjsPath1146" x="210" y="30" stroke="rgba(255, 255, 255, 0.26)"></use><use xlink:href="#SvgjsPath1145" x="210" y="90" stroke="rgba(255, 255, 255, 0.26)"></use><use xlink:href="#SvgjsPath1148" x="210" y="150" stroke="rgba(255, 255, 255, 0.26)"></use><use xlink:href="#SvgjsPath1145" x="210" y="210" stroke="rgba(255, 255, 255, 0.26)"></use><use xlink:href="#SvgjsPath1144" x="210" y="270" stroke="rgba(255, 255, 255, 0.26)"></use><use xlink:href="#SvgjsPath1145" x="270" y="30" stroke="rgba(255, 255, 255, 0.26)"></use><use xlink:href="#SvgjsPath1145" x="270" y="90" stroke="rgba(255, 255, 255, 0.26)"></use><use xlink:href="#SvgjsPath1144" x="270" y="150" stroke="rgba(255, 255, 255, 0.26)"></use><use xlink:href="#SvgjsPath1145" x="270" y="210" stroke="rgba(255, 255, 255, 0.26)"></use><use xlink:href="#SvgjsPath1145" x="270" y="270" stroke="rgba(255, 255, 255, 0.26)"></use></g><defs><mask id="SvgjsMask1143"><rect width="300" height="300" fill="#ffffff"></rect></mask><path d="M-1 0 a1 1 0 1 0 2 0 a1 1 0 1 0 -2 0z" id="SvgjsPath1148"></path><path d="M-3 0 a3 3 0 1 0 6 0 a3 3 0 1 0 -6 0z" id="SvgjsPath1147"></path><path d="M-5 0 a5 5 0 1 0 10 0 a5 5 0 1 0 -10 0z" id="SvgjsPath1145"></path><path d="M2 -2 L-2 2z" id="SvgjsPath1146"></path><path d="M6 -6 L-6 6z" id="SvgjsPath1144"></path><path d="M30 -30 L-30 30z"></path></defs></svg>